<svg xmlns="http://www.w3.org/2000/svg" width="12" height="12" viewBox="0 0 12 12"><g transform="translate(0.001 0)"><rect width="11.96" height="11.96" fill="none"/><path d="M9.347,4.41a4.937,4.937,0,1,0,4.937,4.937A4.937,4.937,0,0,0,9.347,4.41ZM6.033,7.343A4.24,4.24,0,0,1,7.868,6.93V7.988A3.18,3.18,0,0,0,6.487,8.3Zm3.314,5.122a4.053,4.053,0,0,1-2.839-1.153l.739-.765a3.017,3.017,0,0,0,4.2,0l.739.758a4.053,4.053,0,0,1-2.839,1.161ZM12.208,8.3a3.18,3.18,0,0,0-1.381-.312V6.93a4.24,4.24,0,0,1,1.834.412Z" transform="translate(-3.347 -3.347)" fill="none"/><path d="M10.239,1.754a6,6,0,1,0,0,8.485,6,6,0,0,0,0-8.485ZM6,10.938A4.941,4.941,0,1,1,10.938,6,4.941,4.941,0,0,1,6,10.938Z" transform="translate(0.003 0.003)" fill="#fff"/><path d="M16.011,30.857A3.012,3.012,0,0,1,13.9,30l-.742.761a4.093,4.093,0,0,0,5.7,0L18.12,30a3.012,3.012,0,0,1-2.109.857Z" transform="translate(-10.011 -22.805)" fill="#fff"/><path d="M13.022,14.92a4.257,4.257,0,0,0-1.842.414l.455.963a3.192,3.192,0,0,1,1.387-.313Z" transform="translate(-8.498 -11.34)" fill="#fff"/><path d="M31.17,15.974a3.192,3.192,0,0,1,1.387.313l.455-.963a4.257,4.257,0,0,0-1.842-.414Z" transform="translate(-23.694 -11.333)" fill="#fff"/></g></svg>